# xmcd
#
# Track frame offsets:
# 150
# 20700
# 43302
# 66037
# 89000
# 108742
# 129637
# 152222
# 171485
#
# Disc length: 2624 seconds
#
# Revision: 0
# Processed by: cddbd v1.4PL0 Copyright (c) Steve Scherf et al.
# Submitted via: MacMP3 Pro 5.0 (http://mp3.act2.co.jp/)
#
DISCID=870a3e09
DTITLE=Niki King - New Day
DYEAR=1900
DGENRE=
TTITLE0=Take Me Away
TTITLE1=New Day
TTITLE2=Willing To Be
TTITLE3=Iberia
TTITLE4=Hopes Of Change
TTITLE5=Out Of My Mind
TTITLE6=Soul Saviour
TTITLE7=Using Time
TTITLE8=Promised Land
EXTD=
EXTT0=
EXTT1=
EXTT2=
EXTT3=
EXTT4=
EXTT5=
EXTT6=
EXTT7=
EXTT8=
PLAYORDER=
